<mxfile host="app.diagrams.net" modified="2021-04-16T22:07:00.079Z" agent="5.0 (Windows NT 10.0; Win64; x64) AppleWebKit/537.36 (KHTML, like Gecko) Chrome/86.0.4240.198 Whale/2.9.116.15 Safari/537.36" etag="Ph2hT1d7nHSNBY7adiK2" version="14.6.1" type="github">
  <diagram id="vPpmAZyfwJPQhjs65pCP" name="Page-1">
    <mxGraphModel dx="1970" dy="1827" grid="1" gridSize="10" guides="1" tooltips="1" connect="1" arrows="1" fold="1" page="1" pageScale="1" pageWidth="827" pageHeight="1169" math="0" shadow="0">
      <root>
        <mxCell id="0" />
        <mxCell id="1" parent="0" />
        <mxCell id="Ixk2TPtNxIe3ymc7RwaV-39" value="header&lt;br&gt;" style="shape=umlFrame;whiteSpace=wrap;html=1;" parent="1" vertex="1">
          <mxGeometry x="-530" y="-1120" width="370" height="410" as="geometry" />
        </mxCell>
        <mxCell id="Ixk2TPtNxIe3ymc7RwaV-2" value="main" style="swimlane;fontStyle=1;align=center;verticalAlign=top;childLayout=stackLayout;horizontal=1;startSize=26;horizontalStack=0;resizeParent=1;resizeParentMax=0;resizeLast=0;collapsible=1;marginBottom=0;fillColor=#dae8fc;strokeColor=#6c8ebf;" parent="1" vertex="1">
          <mxGeometry x="-79" y="-1069" width="320" height="180" as="geometry" />
        </mxCell>
        <mxCell id="Ixk2TPtNxIe3ymc7RwaV-3" value="t_state state" style="text;strokeColor=none;fillColor=none;align=left;verticalAlign=top;spacingLeft=4;spacingRight=4;overflow=hidden;rotatable=0;points=[[0,0.5],[1,0.5]];portConstraint=eastwest;" parent="Ixk2TPtNxIe3ymc7RwaV-2" vertex="1">
          <mxGeometry y="26" width="320" height="26" as="geometry" />
        </mxCell>
        <mxCell id="Ixk2TPtNxIe3ymc7RwaV-4" value="" style="line;strokeWidth=1;fillColor=#dae8fc;align=left;verticalAlign=middle;spacingTop=-1;spacingLeft=3;spacingRight=3;rotatable=0;labelPosition=right;points=[];portConstraint=eastwest;strokeColor=#6c8ebf;" parent="Ixk2TPtNxIe3ymc7RwaV-2" vertex="1">
          <mxGeometry y="52" width="320" height="8" as="geometry" />
        </mxCell>
        <mxCell id="Ixk2TPtNxIe3ymc7RwaV-5" value="init_state(&amp;state)&#xa;parse_env(char **env, t_state &amp;state)&#xa;signal&#xa;while (1)&#xa;  prompt(&amp;state)&#xa;  tokenizer(&amp;state)&#xa;" style="text;strokeColor=none;fillColor=none;align=left;verticalAlign=top;spacingLeft=4;spacingRight=4;overflow=hidden;rotatable=0;points=[[0,0.5],[1,0.5]];portConstraint=eastwest;" parent="Ixk2TPtNxIe3ymc7RwaV-2" vertex="1">
          <mxGeometry y="60" width="320" height="120" as="geometry" />
        </mxCell>
        <mxCell id="Ixk2TPtNxIe3ymc7RwaV-6" value="s_env - t_env" style="swimlane;fontStyle=0;childLayout=stackLayout;horizontal=1;startSize=26;fillColor=#fff2cc;horizontalStack=0;resizeParent=1;resizeParentMax=0;resizeLast=0;collapsible=1;marginBottom=0;strokeColor=#d6b656;" parent="1" vertex="1">
          <mxGeometry x="-310" y="-1000" width="140" height="80" as="geometry" />
        </mxCell>
        <mxCell id="Ixk2TPtNxIe3ymc7RwaV-7" value="char   *key; &#xa;char   *value; &#xa;struct s_env *next;" style="text;strokeColor=none;fillColor=none;align=left;verticalAlign=top;spacingLeft=4;spacingRight=4;overflow=hidden;rotatable=0;points=[[0,0.5],[1,0.5]];portConstraint=eastwest;" parent="Ixk2TPtNxIe3ymc7RwaV-6" vertex="1">
          <mxGeometry y="26" width="140" height="54" as="geometry" />
        </mxCell>
        <mxCell id="Ixk2TPtNxIe3ymc7RwaV-16" style="edgeStyle=orthogonalEdgeStyle;rounded=0;orthogonalLoop=1;jettySize=auto;html=1;exitX=0.5;exitY=0;exitDx=0;exitDy=0;entryX=0;entryY=0.5;entryDx=0;entryDy=0;" parent="1" source="Ixk2TPtNxIe3ymc7RwaV-11" target="Ixk2TPtNxIe3ymc7RwaV-3" edge="1">
          <mxGeometry relative="1" as="geometry" />
        </mxCell>
        <mxCell id="Ixk2TPtNxIe3ymc7RwaV-11" value="s_state - t_state" style="swimlane;fontStyle=0;childLayout=stackLayout;horizontal=1;startSize=26;fillColor=#fff2cc;horizontalStack=0;resizeParent=1;resizeParentMax=0;resizeLast=0;collapsible=1;marginBottom=0;strokeColor=#d6b656;" parent="1" vertex="1">
          <mxGeometry x="-509" y="-1000" width="160" height="100" as="geometry" />
        </mxCell>
        <mxCell id="Ixk2TPtNxIe3ymc7RwaV-12" value="t_token   *token_head; &#xa;t_env   *env_head; &#xa;t_cmd *cmd;&#xa;char   *input; &#xa;" style="text;strokeColor=none;fillColor=none;align=left;verticalAlign=top;spacingLeft=4;spacingRight=4;overflow=hidden;rotatable=0;points=[[0,0.5],[1,0.5]];portConstraint=eastwest;" parent="Ixk2TPtNxIe3ymc7RwaV-11" vertex="1">
          <mxGeometry y="26" width="160" height="74" as="geometry" />
        </mxCell>
        <mxCell id="Ixk2TPtNxIe3ymc7RwaV-15" style="edgeStyle=orthogonalEdgeStyle;rounded=0;orthogonalLoop=1;jettySize=auto;html=1;exitX=1.012;exitY=0.163;exitDx=0;exitDy=0;exitPerimeter=0;" parent="1" source="Ixk2TPtNxIe3ymc7RwaV-12" target="Ixk2TPtNxIe3ymc7RwaV-7" edge="1">
          <mxGeometry relative="1" as="geometry" />
        </mxCell>
        <mxCell id="Ixk2TPtNxIe3ymc7RwaV-17" value="parse_env" style="swimlane;fontStyle=1;align=center;verticalAlign=top;childLayout=stackLayout;horizontal=1;startSize=20;horizontalStack=0;resizeParent=1;resizeParentMax=0;resizeLast=0;collapsible=1;marginBottom=0;fillColor=#dae8fc;strokeColor=#6c8ebf;" parent="1" vertex="1">
          <mxGeometry x="-79" y="-870" width="126" height="70" as="geometry" />
        </mxCell>
        <mxCell id="Ixk2TPtNxIe3ymc7RwaV-19" value="" style="line;strokeWidth=1;fillColor=#dae8fc;align=left;verticalAlign=middle;spacingTop=-1;spacingLeft=3;spacingRight=3;rotatable=0;labelPosition=right;points=[];portConstraint=eastwest;strokeColor=#6c8ebf;" parent="Ixk2TPtNxIe3ymc7RwaV-17" vertex="1">
          <mxGeometry y="20" width="126" height="50" as="geometry" />
        </mxCell>
        <mxCell id="Ixk2TPtNxIe3ymc7RwaV-21" style="edgeStyle=orthogonalEdgeStyle;rounded=0;orthogonalLoop=1;jettySize=auto;html=1;exitX=0;exitY=0.5;exitDx=0;exitDy=0;entryX=0;entryY=0.5;entryDx=0;entryDy=0;" parent="1" source="Ixk2TPtNxIe3ymc7RwaV-5" target="Ixk2TPtNxIe3ymc7RwaV-17" edge="1">
          <mxGeometry relative="1" as="geometry">
            <mxPoint x="-119" y="-789.9999999999999" as="targetPoint" />
            <Array as="points">
              <mxPoint x="-129" y="-959" />
              <mxPoint x="-129" y="-835" />
            </Array>
          </mxGeometry>
        </mxCell>
        <mxCell id="Ixk2TPtNxIe3ymc7RwaV-22" value="prompt&#xa;" style="swimlane;fontStyle=1;align=center;verticalAlign=top;childLayout=stackLayout;horizontal=1;startSize=30;horizontalStack=0;resizeParent=1;resizeParentMax=0;resizeLast=0;collapsible=1;marginBottom=0;fillColor=#dae8fc;strokeColor=#6c8ebf;" parent="1" vertex="1">
          <mxGeometry x="-79" y="-770" width="160" height="160" as="geometry" />
        </mxCell>
        <mxCell id="Ixk2TPtNxIe3ymc7RwaV-25" value="char *input&#xa;" style="text;strokeColor=none;fillColor=none;align=left;verticalAlign=top;spacingLeft=4;spacingRight=4;overflow=hidden;rotatable=0;points=[[0,0.5],[1,0.5]];portConstraint=eastwest;" parent="Ixk2TPtNxIe3ymc7RwaV-22" vertex="1">
          <mxGeometry y="30" width="160" height="20" as="geometry" />
        </mxCell>
        <mxCell id="Ixk2TPtNxIe3ymc7RwaV-24" value="" style="line;strokeWidth=1;fillColor=#dae8fc;align=left;verticalAlign=middle;spacingTop=-1;spacingLeft=3;spacingRight=3;rotatable=0;labelPosition=right;points=[];portConstraint=eastwest;strokeColor=#6c8ebf;" parent="Ixk2TPtNxIe3ymc7RwaV-22" vertex="1">
          <mxGeometry y="50" width="160" height="10" as="geometry" />
        </mxCell>
        <mxCell id="Ixk2TPtNxIe3ymc7RwaV-27" value="init_term(s)&#xa;while (1)&#xa;  if (term_loop(s) == 0)&#xa;    reset_save(s)&#xa;    break ;&#xa;  else&#xa;    continue;" style="text;strokeColor=none;fillColor=none;align=left;verticalAlign=top;spacingLeft=4;spacingRight=4;overflow=hidden;rotatable=0;points=[[0,0.5],[1,0.5]];portConstraint=eastwest;" parent="Ixk2TPtNxIe3ymc7RwaV-22" vertex="1">
          <mxGeometry y="60" width="160" height="100" as="geometry" />
        </mxCell>
        <mxCell id="Ixk2TPtNxIe3ymc7RwaV-26" style="edgeStyle=orthogonalEdgeStyle;rounded=0;orthogonalLoop=1;jettySize=auto;html=1;exitX=0;exitY=0.5;exitDx=0;exitDy=0;entryX=0.013;entryY=0.696;entryDx=0;entryDy=0;entryPerimeter=0;" parent="1" source="Ixk2TPtNxIe3ymc7RwaV-5" target="Ixk2TPtNxIe3ymc7RwaV-27" edge="1">
          <mxGeometry relative="1" as="geometry">
            <mxPoint x="-115" y="-791.0000000000001" as="targetPoint" />
            <Array as="points">
              <mxPoint x="-79" y="-959" />
              <mxPoint x="-119" y="-959" />
              <mxPoint x="-119" y="-690" />
              <mxPoint x="-120" y="-690" />
              <mxPoint x="-120" y="-640" />
            </Array>
          </mxGeometry>
        </mxCell>
        <mxCell id="Ixk2TPtNxIe3ymc7RwaV-28" value="tokenizer" style="swimlane;fontStyle=1;align=center;verticalAlign=top;childLayout=stackLayout;horizontal=1;startSize=30;horizontalStack=0;resizeParent=1;resizeParentMax=0;resizeLast=0;collapsible=1;marginBottom=0;fillColor=#dae8fc;strokeColor=#6c8ebf;" parent="1" vertex="1">
          <mxGeometry x="-79" y="-560" width="160" height="80" as="geometry" />
        </mxCell>
        <mxCell id="Ixk2TPtNxIe3ymc7RwaV-30" value="" style="line;strokeWidth=1;fillColor=#dae8fc;align=left;verticalAlign=middle;spacingTop=-1;spacingLeft=3;spacingRight=3;rotatable=0;labelPosition=right;points=[];portConstraint=eastwest;strokeColor=#6c8ebf;" parent="Ixk2TPtNxIe3ymc7RwaV-28" vertex="1">
          <mxGeometry y="30" width="160" height="50" as="geometry" />
        </mxCell>
        <mxCell id="Ixk2TPtNxIe3ymc7RwaV-32" style="edgeStyle=orthogonalEdgeStyle;rounded=0;orthogonalLoop=1;jettySize=auto;html=1;exitX=0;exitY=0.5;exitDx=0;exitDy=0;entryX=0;entryY=0.75;entryDx=0;entryDy=0;" parent="1" source="Ixk2TPtNxIe3ymc7RwaV-5" target="Ixk2TPtNxIe3ymc7RwaV-28" edge="1">
          <mxGeometry relative="1" as="geometry">
            <mxPoint x="-115" y="-577.0000000000001" as="targetPoint" />
            <Array as="points">
              <mxPoint x="-79" y="-959" />
              <mxPoint x="-99" y="-959" />
              <mxPoint x="-99" y="-500" />
            </Array>
          </mxGeometry>
        </mxCell>
        <mxCell id="Ixk2TPtNxIe3ymc7RwaV-34" value="s_token - t_token" style="swimlane;fontStyle=0;childLayout=stackLayout;horizontal=1;startSize=26;fillColor=#fff2cc;horizontalStack=0;resizeParent=1;resizeParentMax=0;resizeLast=0;collapsible=1;marginBottom=0;strokeColor=#d6b656;" parent="1" vertex="1">
          <mxGeometry x="-310" y="-908" width="140" height="80" as="geometry" />
        </mxCell>
        <mxCell id="Ixk2TPtNxIe3ymc7RwaV-35" value="char   *str; &#xa;type int; &#xa;struct s_token *next;" style="text;strokeColor=none;fillColor=none;align=left;verticalAlign=top;spacingLeft=4;spacingRight=4;overflow=hidden;rotatable=0;points=[[0,0.5],[1,0.5]];portConstraint=eastwest;" parent="Ixk2TPtNxIe3ymc7RwaV-34" vertex="1">
          <mxGeometry y="26" width="140" height="54" as="geometry" />
        </mxCell>
        <mxCell id="Ixk2TPtNxIe3ymc7RwaV-36" style="edgeStyle=orthogonalEdgeStyle;rounded=0;orthogonalLoop=1;jettySize=auto;html=1;exitX=1;exitY=0.5;exitDx=0;exitDy=0;entryX=0;entryY=0.5;entryDx=0;entryDy=0;" parent="1" source="Ixk2TPtNxIe3ymc7RwaV-12" target="Ixk2TPtNxIe3ymc7RwaV-35" edge="1">
          <mxGeometry relative="1" as="geometry" />
        </mxCell>
        <mxCell id="Ixk2TPtNxIe3ymc7RwaV-40" value="&lt;div&gt;#define COMMON 1&lt;/div&gt;&lt;div&gt;#define OPERATE 2&lt;/div&gt;" style="html=1;fillColor=none;align=center;" parent="1" vertex="1">
          <mxGeometry x="-449" y="-1090" width="160" height="50" as="geometry" />
        </mxCell>
        <mxCell id="DFaYo-LoWVJwSwJaPACe-1" value="handle_signal" style="swimlane;fontStyle=1;align=center;verticalAlign=top;childLayout=stackLayout;horizontal=1;startSize=20;horizontalStack=0;resizeParent=1;resizeParentMax=0;resizeLast=0;collapsible=1;marginBottom=0;fillColor=#dae8fc;strokeColor=#6c8ebf;" parent="1" vertex="1">
          <mxGeometry x="115" y="-870" width="126" height="70" as="geometry" />
        </mxCell>
        <mxCell id="DFaYo-LoWVJwSwJaPACe-2" value="" style="line;strokeWidth=1;fillColor=#dae8fc;align=left;verticalAlign=middle;spacingTop=-1;spacingLeft=3;spacingRight=3;rotatable=0;labelPosition=right;points=[];portConstraint=eastwest;strokeColor=#6c8ebf;" parent="DFaYo-LoWVJwSwJaPACe-1" vertex="1">
          <mxGeometry y="20" width="126" height="50" as="geometry" />
        </mxCell>
        <mxCell id="DFaYo-LoWVJwSwJaPACe-3" value="s_cmd - t_cmd" style="swimlane;fontStyle=0;childLayout=stackLayout;horizontal=1;startSize=26;fillColor=#fff2cc;horizontalStack=0;resizeParent=1;resizeParentMax=0;resizeLast=0;collapsible=1;marginBottom=0;strokeColor=#d6b656;" parent="1" vertex="1">
          <mxGeometry x="-310" y="-810" width="140" height="80" as="geometry" />
        </mxCell>
        <mxCell id="DFaYo-LoWVJwSwJaPACe-4" value="char   **av; &#xa;int ac;&#xa;struct s_cmd *next;" style="text;strokeColor=none;fillColor=none;align=left;verticalAlign=top;spacingLeft=4;spacingRight=4;overflow=hidden;rotatable=0;points=[[0,0.5],[1,0.5]];portConstraint=eastwest;" parent="DFaYo-LoWVJwSwJaPACe-3" vertex="1">
          <mxGeometry y="26" width="140" height="54" as="geometry" />
        </mxCell>
        <mxCell id="DFaYo-LoWVJwSwJaPACe-5" style="edgeStyle=orthogonalEdgeStyle;rounded=0;orthogonalLoop=1;jettySize=auto;html=1;" parent="1" source="Ixk2TPtNxIe3ymc7RwaV-12" target="DFaYo-LoWVJwSwJaPACe-4" edge="1">
          <mxGeometry relative="1" as="geometry">
            <Array as="points">
              <mxPoint x="-339" y="-937" />
              <mxPoint x="-339" y="-757" />
            </Array>
          </mxGeometry>
        </mxCell>
      </root>
    </mxGraphModel>
  </diagram>
</mxfile>
